<?xml version="1.0" encoding="utf-8"?>
<!-- Generator: Adobe Illustrator 17.0.2, SVG Export Plug-In . SVG Version: 6.00 Build 0)  -->
<!DOCTYPE svg PUBLIC "-//W3C//DTD SVG 1.1//EN" "http://www.w3.org/Graphics/SVG/1.1/DTD/svg11.dtd">
<svg version="1.1" id="Layer_1" xmlns="http://www.w3.org/2000/svg" xmlns:xlink="http://www.w3.org/1999/xlink" x="0px" y="0px"
	 width="134.333px" height="143.333px" viewBox="0 0 134.333 143.333" enable-background="new 0 0 134.333 143.333"
	 xml:space="preserve">
<path fill="#BEBEBE" d="M6.524,0.417c0.262-0.556,0.69-0.556,0.951,0l1.373,2.917C9.11,3.89,9.803,4.417,10.388,4.506l3.071,0.468
	c0.585,0.089,0.717,0.516,0.294,0.948L11.53,8.194c-0.423,0.433-0.688,1.286-0.588,1.897l0.525,3.207
	c0.1,0.611-0.246,0.875-0.769,0.586l-2.746-1.514c-0.523-0.288-1.379-0.288-1.902,0l-2.746,1.514
	c-0.523,0.288-0.869,0.025-0.769-0.586l0.525-3.207c0.1-0.611-0.165-1.464-0.588-1.897L0.248,5.923
	C-0.175,5.49-0.043,5.063,0.542,4.974l3.071-0.468C4.197,4.417,4.89,3.89,5.151,3.334L6.524,0.417z"/>
<path fill="#BEBEBE" d="M10.028,45.789c0,2.234-0.76,3.403-1.446,3.919c-0.686,0.516,0.686,2.612,2.743,2.956
	C13.383,53.007,14,56.444,14,56.444H0c0,0,0.72-3.437,2.777-3.781c2.057-0.344,3.326-2.441,2.64-2.956s-1.343-1.684-1.343-3.919
	s1.68-3.344,3.26-3.344S10.028,43.554,10.028,45.789z"/>
<path fill="#FFFFFF" d="M18.688,98.46l-5.348-5.349c0.641-1.065,1.016-2.307,1.016-3.641c0-3.911-3.171-7.082-7.083-7.082
	s-7.083,3.171-7.083,7.082c0,3.911,3.171,7.082,7.083,7.082c1.333,0,2.576-0.375,3.641-1.016l5.348,5.349
	c0.335,0.335,0.774,0.503,1.213,0.503c0.439,0,0.878-0.168,1.213-0.503C19.358,100.216,19.358,99.131,18.688,98.46z M3.397,89.471
	c0-2.141,1.735-3.876,3.876-3.876c2.141,0,3.876,1.735,3.876,3.876c0,2.141-1.736,3.876-3.876,3.876
	C5.132,93.348,3.397,91.612,3.397,89.471z"/>
<path fill="#FFFFFF" d="M18,134.333c0,4.971-4.029,9-9,9s-9-4.029-9-9c0-4.971,4.029-9,9-9S18,129.363,18,134.333z M7.676,140.046
	h2.648v-4.436h4.459v-2.555h-4.459v-4.436H7.676v4.436H3.217v2.555h4.459V140.046z"/>
</svg>
