<?xml version="1.0" encoding="utf-8"?>
<!-- Generator: Adobe Illustrator 17.0.2, SVG Export Plug-In . SVG Version: 6.00 Build 0)  -->
<!DOCTYPE svg PUBLIC "-//W3C//DTD SVG 1.1//EN" "http://www.w3.org/Graphics/SVG/1.1/DTD/svg11.dtd">
<svg version="1.1" id="Layer_1" xmlns="http://www.w3.org/2000/svg" xmlns:xlink="http://www.w3.org/1999/xlink" x="0px" y="0px"
	 width="19.191px" height="209.833px" viewBox="0 0 19.191 209.833" enable-background="new 0 0 19.191 209.833"
	 xml:space="preserve">
<path fill="#BEBEBE" d="M6.524,0.417c0.262-0.556,0.69-0.556,0.951,0l1.373,2.917c0.262,0.556,0.955,1.083,1.54,1.172l3.071,0.468
	c0.585,0.089,0.717,0.516,0.294,0.948L11.53,8.194c-0.423,0.433-0.688,1.286-0.588,1.897l0.525,3.207
	c0.1,0.611-0.246,0.875-0.769,0.586L7.952,12.37c-0.523-0.288-1.379-0.288-1.902,0l-2.746,1.514
	c-0.523,0.288-0.869,0.025-0.769-0.586l0.525-3.207c0.1-0.611-0.165-1.464-0.588-1.897L0.248,5.923
	c-0.423-0.433-0.291-0.86,0.294-0.949l3.071-0.468C4.197,4.417,4.89,3.89,5.151,3.334L6.524,0.417z"/>
<path fill="#BEBEBE" d="M10.028,45.789c0,2.234-0.76,3.403-1.446,3.919s0.686,2.612,2.743,2.956c2.058,0.343,2.675,3.78,2.675,3.78
	H0c0,0,0.72-3.437,2.777-3.781c2.057-0.344,3.326-2.441,2.64-2.956s-1.343-1.684-1.343-3.919s1.68-3.344,3.26-3.344
	S10.028,43.554,10.028,45.789z"/>
<path fill="#FFFFFF" d="M18.593,98.46l-5.348-5.349c0.641-1.065,1.016-2.307,1.016-3.641c0-3.911-3.171-7.082-7.083-7.082
	s-7.083,3.171-7.083,7.082s3.171,7.082,7.083,7.082c1.333,0,2.576-0.375,3.641-1.016l5.348,5.349
	c0.335,0.335,0.774,0.503,1.213,0.503s0.878-0.168,1.213-0.503C19.263,100.216,19.263,99.131,18.593,98.46z M3.302,89.471
	c0-2.141,1.735-3.876,3.876-3.876s3.876,1.735,3.876,3.876s-1.736,3.876-3.876,3.876C5.037,93.348,3.302,91.612,3.302,89.471z"/>
<path fill="#FFFFFF" d="M18.595,134.333c0,4.971-4.029,9-9,9s-9-4.029-9-9s4.029-9,9-9S18.595,129.363,18.595,134.333z
	 M8.271,140.046h2.648v-4.436h4.459v-2.555h-4.459v-4.436H8.271v4.436H3.812v2.555h4.459V140.046z"/>
<path fill="#FFFFFF" d="M10.727,174.124l-4.81-0.228v-0.681c0-0.756-0.546-1.085-1.214-0.73l-3.607,1.917
	c-0.668,0.355-0.668,0.936,0,1.29l3.607,1.917c0.668,0.355,1.214,0.027,1.214-0.73v-0.676l4.81-0.239
	c0.254,0,0.485-0.103,0.651-0.269c0.167-0.167,0.269-0.397,0.269-0.651C11.648,174.536,11.236,174.124,10.727,174.124z"/>
<path fill="#FFFFFF" d="M1.515,208.052l4.81,0.228v0.681c0,0.756,0.546,1.085,1.214,0.73l3.607-1.917
	c0.668-0.355,0.668-0.936,0-1.29l-3.607-1.917c-0.668-0.355-1.214-0.027-1.214,0.73v0.676l-4.81,0.239
	c-0.254,0-0.485,0.103-0.651,0.269s-0.269,0.397-0.269,0.651C0.595,207.64,1.007,208.052,1.515,208.052z"/>
</svg>
